<?xml version="1.0" encoding="UTF-8" standalone="no"?>
<!-- Created with Inkscape (http://www.inkscape.org/) -->

<svg
   xmlns:dc="http://purl.org/dc/elements/1.1/"
   xmlns:cc="http://creativecommons.org/ns#"
   xmlns:rdf="http://www.w3.org/1999/02/22-rdf-syntax-ns#"
   xmlns:svg="http://www.w3.org/2000/svg"
   xmlns="http://www.w3.org/2000/svg"
   xmlns:sodipodi="http://sodipodi.sourceforge.net/DTD/sodipodi-0.dtd"
   xmlns:inkscape="http://www.inkscape.org/namespaces/inkscape"
   width="2492.5752"
   height="1365.7094"
   id="svg2"
   version="1.1"
   inkscape:version="0.48.4 r9939"
   sodipodi:docname="Silhouette 11 (alpaga).svg">
  <defs
     id="defs4" />
  <sodipodi:namedview
     id="base"
     pagecolor="#ffffff"
     bordercolor="#666666"
     borderopacity="1.0"
     inkscape:pageopacity="0.0"
     inkscape:pageshadow="2"
     inkscape:zoom="0.24748737"
     inkscape:cx="1745.5761"
     inkscape:cy="592.43462"
     inkscape:document-units="px"
     inkscape:current-layer="layer1"
     showgrid="false"
     fit-margin-top="0"
     fit-margin-left="0"
     fit-margin-right="0"
     fit-margin-bottom="0"
     inkscape:window-width="1920"
     inkscape:window-height="1017"
     inkscape:window-x="-8"
     inkscape:window-y="-8"
     inkscape:window-maximized="1" />
  <metadata
     id="metadata7">
    <rdf:RDF>
      <cc:Work
         rdf:about="">
        <dc:format>image/svg+xml</dc:format>
        <dc:type
           rdf:resource="http://purl.org/dc/dcmitype/StillImage" />
        <dc:title></dc:title>
      </cc:Work>
    </rdf:RDF>
  </metadata>
  <g
     inkscape:groupmode="layer"
     id="layer2"
     inkscape:label="Calque"
     transform="translate(411.66465,1083.1931)" />
  <g
     inkscape:label="Calque 1"
     inkscape:groupmode="layer"
     id="layer1"
     transform="translate(228.86385,816.63055)">
    <g
       id="g3801"
       transform="matrix(0.8065037,0,0,0.79342601,776.93131,161.51495)">
      <path
         id="path3797"
         transform="translate(182.8008,266.5625)"
         style="fill:#000000;stroke:#000000;stroke-width:1px;stroke-linecap:butt;stroke-linejoin:miter;stroke-opacity:1"
         d="m 273.24626,124.43574 c -0.50507,-2.02031 -3.03045,-9.59645 -3.03045,-9.59645 0,0 -7.57615,6.06092 -8.08122,4.04061 -0.50508,-2.0203 -0.50508,-2.52538 -0.50508,-2.52538 l -4.54569,15.65736 -11.61675,9.09138 -6.06092,7.57614 -3.03045,-15.15229 6.06091,-18.68782 -5.55584,-21.718279 -6.56599,27.274119 -8.08122,19.1929 -3.53553,-15.65737 -1.51523,-12.12183 -7.07107,-16.162438 -1.51523,3.030458 -16.66752,27.27412 -14.14213,10.10152 -2.02031,-13.63706 0,-15.15228 -1.01015,-23.233512 -17.67767,6.565992 5.05076,-11.616755 5.05077,-28.284271 -5.05077,-16.162441 -11.61675,41.921331 1.01015,-26.769042 -7.57614,-19.192899 -4.04061,-7.576144 -3.53554,-17.6776694 -12.12183,12.1218304 -0.50507,37.375644 -2.52538,-16.667517 -5.55584,-17.677669 3.53553,-18.182746 -1.51523,-14.142136 -6.06091,-10.606601 0.50507,-24.748738 -3.03046,-13.131983 -11.111673,25.75889 6.060913,30.8096527 0,46.9720933 -3.03046,25.253814 -7.071063,12.12183 0,-33.84011 -7.071068,-19.697975 c 0,0 -3.030458,-14.142135 -1.010153,-20.2030506 2.020305,-6.06091525 0,-22.7284324 0,-24.7487374 0,-2.020305 -7.071067,-17.677669 -7.071067,-17.677669 l -4.545687,22.728432 c 0,0 -0.505076,12.62690661 0.505076,14.6472117 C 75.761441,3.7225108 60.609153,-10.924701 60.609153,-10.924701 l -5.050763,-15.152288 11.111678,-30.304577 -3.535534,-26.769042 -7.071068,-16.667517 0,-22.223355 -5.050762,-23.23351 -6.060916,14.64721 -9.596449,11.11168 -4.545686,22.728432 -1.515229,-9.596452 0.505076,-20.20305 5.050763,-10.6066 6.565991,-19.1929 -2.020305,-27.77919 -9.091373,-19.1929 -7.576144,18.68782 -4.04061,19.1929 -10.1015254,-23.23351 -9.5964491,-11.61675 -6.0609153,-5.05077 -4.0406102,13.63706 -6.060915,17.67767 -10.606602,11.11168 -14.647212,-2.0203 -13.637059,18.68782 5.050762,18.18274 15.657365,17.67767 24.243661,25.758893 3.5355339,14.647212 5.0507627,24.748737 L 0,-21.531303 -20.203051,-59.9171 l -25.253814,-29.294423 11.616755,24.243661 16.667517,27.779195 -0.505077,14.647212 c 0,0 3.030458,9.596449 -2.525381,3.535534 -5.555839,-6.060916 -13.637059,-13.131984 -13.637059,-13.131984 l -3.535534,-12.12183 -0.505076,18.182746 4.545686,18.6878218 -1.515229,21.2132032 -6.060915,13.131983 -1.515229,9.59645 0,7.576144 -12.12183,-13.63706 -1.515229,9.596449 -3.535534,6.060916 -6.565992,9.596449 -5.050762,5.050763 -1.515229,10.606601 -1.010153,-13.131983 -12.12183,-17.677669 -6.060916,19.192898 -10.101528,12.121831 -13.63706,-12.626907 -6.56599,1.515229 -11.11168,8.586296 -3.53553,-8.08122 -6.56599,-9.596449 -10.10153,14.142135 c 0,0 2.52538,5.555839 -0.50507,7.071068 -3.03046,1.515229 -5.55584,5.555839 -5.55584,5.555839 l -18.18275,-9.091373 -11.61675,-15.657364 5.55584,36.870568 -2.02031,24.24366 -1.51523,17.67767 -7.57614,14.14214 -8.5863,14.14213 -14.14213,7.57615 -11.11168,9.59644 c 0,0 -4.54569,1.51523 -7.57615,2.52539 -3.03045,1.01015 -49.49747,18.18274 -54.04316,17.67767 -4.54568,-0.50508 -18.18274,-4.04061 -18.18274,-4.04061 l -19.1929,-8.5863 -16.16244,-8.5863 -14.64721,-10.10152 -10.10153,-0.50508 -8.5863,-6.06091 -5.55583,-4.54569 -1.01016,-12.62691 9.09138,-14.14213 15.15228,-17.67767 17.67767,-14.647215 27.27412,-18.182746 23.23351,-7.071068 4.54569,-17.172593 1.51523,-30.809653 -2.52539,-21.7182793 -7.07106,-26.2639657 -18.18275,-18.687823 0.50508,22.223356 6.56599,22.2233564 -13.63706,-20.7081274 -5.55584,-7.576144 -1.01015,29.7995002 4.04061,16.6675168 -6.06092,13.131983 -4.04061,-32.32488112 -4.54568,-19.19289788 -6.06092,-18.182746 -4.54569,-13.131983 -6.56599,-5.050763 0.50508,19.697975 2.0203,14.647211 -7.07106,-10.606601 -11.11168,-18.687822 -0.50508,-15.657365 -4.04061,-3.535534 -1.51523,10.101526 -3.53553,-15.657365 -9.09137,-12.12183 0,-8.586297 1.01015,-18.182745 c 0,0 -0.50508,-13.63706 -0.50508,-16.66752 0,-3.03046 -2.0203,-25.25381 -2.0203,-25.25381 l 0.50507,-15.65737 -7.07106,-9.59645 -12.62691,-7.57614 -5.05076,-35.35534 -1.01016,-2.52538 -20.70812,21.2132 c 0,0 -1.01016,-4.54568 -1.01016,-6.56599 0,-2.0203 -2.52538,-20.20305 -2.52538,-20.20305 l -2.0203,-26.26396 -6.56599,-15.15229 -3.53554,18.18274 -10.6066,-14.14213 -9.59645,-13.13199 -5.05076,-13.63706 -15.65737,-9.09137 -18.68782,-11.11168 -5.05076,-3.03045 0.50508,12.6269 -10.60661,-14.14213 -2.0203,11.11168 -3.03046,7.57614 -1.51523,-9.09137 -4.04061,11.61675 -10.10152,-10.10152 -0.50508,13.13198 -3.03046,-12.62691 c 0,0 -10.10152,0 -10.10152,2.02031 0,2.0203 -1.01016,15.15228 -1.01016,15.15228 l 2.02031,18.68783 1.01015,11.11167 c 0,0 -5.05076,-5.55583 -7.07107,-7.07106 -2.0203,-1.51523 -19.69797,-14.14214 -19.69797,-14.14214 l -7.07107,-14.14213 -17.67767,-16.16244 -11.11168,-9.09138 4.04061,19.1929 -8.58629,-8.08122 c 0,0 -4.04061,-9.59645 -6.56599,-11.11168 -2.52539,-1.51523 -15.15229,-3.53553 -15.15229,-3.53553 l -1.01015,10.10152 -5.05077,-7.57614 -8.08122,9.59645 -10.10152,-1.51523 -2.52538,7.57614 3.53553,18.68783 2.52538,17.17259 -7.07107,-5.55584 -4.54568,-13.63706 -1.01016,27.27412 -4.04061,-9.59645 -3.03045,-10.10152 -5.55584,9.59644 -2.52538,-8.08122 -4.54569,-19.69797 -0.50508,16.16244 -5.05076,-8.5863 -4.54569,-15.65736 -0.50507,18.18274 -2.52538,-14.64721 -3.53554,-13.13198 -5.55584,16.66752 0.50508,12.12183 -1.01015,19.69797 0.50507,14.14214 -5.05076,-14.64721 -2.0203,11.61675 -4.54569,-7.57614 -3.03046,8.58629 -5.05076,-6.56599 -12.12183,-14.14213 -3.03046,11.61675 -3.53553,-1.51523 -7.57615,-13.13198 -6.06091,-9.59645 -1.01016,14.64721 -3.53553,-12.62691 -5.55584,-16.66751 -2.0203,-13.13199 -3.03046,-18.68782 -4.54569,-16.16244 -3.53553,13.13198 1.51523,11.11168 -1.51523,18.68782 -0.50508,11.11168 -6.06091,16.66752 -3.53554,14.14213 -5.55584,9.09138 -3.03045,-7.07107 -4.54569,11.11168 c 0,0 -6.06092,5.05076 -8.5863,8.58629 -2.52538,3.53554 -2.52538,3.53554 -2.52538,3.53554 l -2.0203,-8.5863 -3.53554,10.10153 c 0,0 -6.56599,8.58629 -9.09137,10.6066 -2.52538,2.0203 -4.04061,-1.51523 -4.04061,-1.51523 l -1.01015,-10.6066 c 0,0 -13.13199,-2.52538 -13.63706,2.52538 -0.50508,5.05076 -0.50508,12.12183 -0.50508,12.12183 l -10.6066,5.55584 -0.50508,-7.07107 -7.57614,13.13198 -7.07107,13.13199 0,-8.5863 -19.1929,12.62691 -4.54568,8.58629 -3.03046,-6.56599 6.06091,-11.61675 1.01016,-15.65737 -2.52538,-17.17259 -4.04061,28.28427 -4.54569,3.03046 2.52538,-15.65736 -3.03046,-14.14214 -11.61675,24.74874 -1.01015,-11.61676 -5.05077,13.13199 -9.59645,7.57614 -3.53553,3.53553 -7.07107,8.5863 8.08122,-16.66752 3.03046,-15.15228 -7.07107,-24.24367 -0.50507,11.11168 -6.566,-8.58629 0,8.58629 -5.55583,-7.07107 -1.51523,15.65737 -8.08122,-9.59645 0.50507,13.13198 -5.55584,-1.01015 -9.09137,-14.14214 0.50508,15.65737 3.03046,11.11168 -5.05077,3.53553 -2.0203,-7.07107 -9.09134,5.55584 0.505,7.57615 -5.0507,-13.13199 1.0101,19.1929 -9.5964,-12.12183 1.0101,13.63706 -6.0609,-5.05076 -2.5254,10.6066 -10.1015,-3.53553 -8.0812,-6.06092 3.0304,15.65736 -11.1116,-3.53553 -16.6675,-8.08122 -6.566,1.01015 -5.5559,7.57615 -7.071,5.55584 -13.6371,17.67767 -18.1827,28.78934 -32.3249,22.22336 -34.8503,7.07107 -20.203,-1.51523 -11.6168,-8.08122 -25.7589,11.11168 -21.2132,1.51522 -10.1015,-3.53553 -8.0812,-4.04061 -21.7183,-0.50508 -13.6371,-4.04061 -17.1726,-10.6066 -14.6472,-10.6066 -2.5254,-11.11168 0.5051,-15.65736 5.7345,-12.00454 0.8315,-11.22897 -8.0812,-14.14214 -1.0102,-46.46701 8.0813,-26.26397 8.0812,-51.51778 2.0203,-43.43656 -15.1523,-29.29442 -20.2031,-10.10153 -15.1522,-24.24366 -18.1828,-6.06091 -16.1624,-24.24367 2.0203,-28.28427 1.0101,-14.14213 -9.0914,-15.15229 5.0508,-15.15229 6.0609,-16.16244 6.0609,-23.23351 0,-19.1929 3.0305,-20.20305 5.0508,-21.2132 10.1015,-9.09137 8.0812,-18.18275 2.0203,-35.35534 15.1523,-31.31473 12.1218,-16.16244 21.2132,-35.35534 39.396,-32.32488 20.203,-16.16244 20.2031,0 21.2132,-13.13198 34.3452,-15.15229 6.0609,-5.05076 -4.5711,-20.33617 0.3571,-26.42857 7.8572,-38.21429 13.5714,-31.78572 12.8571,-21.42857 14.6429,-19.6429 16.4286,-17.5 18.2142,-12.5 15.3572,-10 21.4286,-9.2857 16.4285,-2.1428 13.5715,-1.0715 16.4285,2.5 13.5715,6.0715 1.7857,2.8571 -3.2143,2.5 -9.2857,2.1429 -19.2857,-0.3572 -21.7858,8.9286 -15.7142,10.7143 -15.7143,14.2857 -15,17.5 -10.7143,25.35715 -4.2857,23.21428 -0.3572,31.07143 1.7857,28.21429 10.7143,27.5 5,12.14285 12.5,-2.5 26.0715,-2.14285 20.7142,3.21428 8.9286,4.64286 5,0.35714 3.9286,0.35715 30.7143,-25 42.14283,-21.42858 32.14285,-12.14285 3.92858,-11.78572 0.71428,-12.14285 7.14286,-11.78572 7.5,6.78572 8.57143,-10.71429 6.07143,7.85714 2.85714,2.5 3.92857,-8.57143 -1.07143,-9.28571 0,-9.64286 11.07143,15 11.07143,6.07143 11.07143,2.14286 2.85714,-32.14286 3.21429,-11.78571 0.71428,-16.78575 4.28572,-12.5 8.57142,3.9286 9.64286,8.2143 -4.23807,-27.252 -3.03045,-14.1421 -8.08122,-23.7386 11.61675,-28.2843 13.13198,-22.7284 15.65737,-22.7284 10.10152,-18.1828 8.08122,-24.2437 24.74874,-43.4365 29.7995,-38.8909 36.36549,-36.3655 33.33504,-24.7487 26.26396,-12.1218 8.08122,-1.5153 48.48732,-39.3959 27.7792,-25.7589 27.27412,-18.6878 44.44671,-11.6168 24.74874,1.5152 14.14213,4.5457 -3.03045,-16.1624 18.68782,-10.1015 34.34518,-1.0102 39.90103,-1.0101 23.23351,-4.5457 22.72843,-13.6371 30.30458,-9.0914 33.84011,-3.5355 24.74874,5.5558 24.74873,10.1016 30.80966,22.2233 33.84011,9.5965 42.426402,14.6472 22.223356,13.637 45.961941,8.0813 19.1928986,9.5964 42.9314834,6.566 38.385797,10.6066 40.911182,24.2437 40.91117,14.1421 21.21321,14.1421 44.44671,30.8097 47.98225,33.8401 57.57869,20.203 30.80965,14.1422 19.1929,-7.5762 29.7995,12.6269 14.64721,12.1219 94.95434,9.5964 98.48988,5.5559 69.19545,4.0406 27.77919,2.5254 104.55079,7.5761 145.96704,-3.5355 110.1066,18.1827 46.9721,1.0102 55.5584,-2.5254 23.7386,0 53.033,5.0507 22.2234,18.6879 14.6472,-5.5559 37.3756,-17.1726 39.396,25.2539 18.6878,20.203 42.4264,23.2335 39.901,35.8604 6.0609,13.6371 35.8605,22.2233 39.3959,48.99244 19.698,47.98225 20.203,64.14468 6.0609,41.41626 4.5457,87.88327 -1.5152,45.96194 8.5863,65.65991 17.1726,33.84011 1.5152,35.86042 3.0305,17.17259 6.0609,18.68783 0,10.6066 -8.5863,-7.57615 2.5254,14.14214 17.6776,35.86041 5.0508,29.7995 -0.5051,22.22336 -4.5457,15.65736 -5.0507,-23.2335 -13.6371,-26.26397 -10.1015,-18.18275 -8.0812,-16.66751 -4.5457,-2.02031 -7.5762,3.03046 11.1117,22.22336 6.566,17.17259 27.7792,89.3985 -11.1117,3.53553 -15.6573,-18.68782 -3.5356,15.65737 0,19.19289 -6.566,10.60661 -4.5456,-24.74874 -4.0407,-23.23351 -6.5659,3.53553 -4.5457,17.67767 -5.5559,-6.06091 -8.5863,-1.51523 -4.5457,19.69797 1.0102,17.67767 6.0609,10.10153 8.0812,21.71828 1.5153,19.69797 -5.5559,17.67767 -10.1015,12.12183 -2.5254,-13.13198 -3.0304,-18.68782 -6.566,11.61675 0,14.14214 5.5558,13.63706 5.5558,12.12183 2.5254,10.6066 0,12.12183 2.5254,25.25381 0,11.11168 -5.5558,14.64721 -6.0609,10.60661 -1.0102,18.18274 -1.5152,10.6066 -1.5153,5.05077 -4.5456,-2.02031 -2.5254,-11.11168 -1.0102,-19.1929 4.0406,-13.63706 0.5051,-19.19289 -7.5761,-14.14214 -1.5153,-3.53553 -7.5761,12.6269 -6.0609,12.62691 2.5254,19.69798 -6.061,16.66751 -3.5355,3.53554 0,21.2132 -1.0101,16.16244 -6.566,15.657365 -3.0305,9.596449 -0.5051,-17.172593 -2.0203,-14.142136 -2.0203,8.08122 -1.0101,17.67767 -3.5356,10.101525 -1.0101,-15.657364 -4.5457,-9.596449 -2.5254,15.152288 -0.5051,8.586297 -1.0101,15.657364 -1.5152,7.576144 2.5253,12.626907 4.5457,8.586297 0,11.1116776 -9.0913,20.7081274 -2.0204,11.616754 -1.5152,12.626907 -0.5051,8.08122 -12.6269,15.657365 6.566,-14.142136 0,-10.101525 -0.505,-13.131983 6.0609,-15.152289 0.505,-14.1421353 -5.0507,-10.6066017 -5.5559,-10.606602 -14.6472,4.04061 -8.5863,14.6472123 -7.071,11.111678 0,13.1319827 6.566,15.152289 4.0406,11.616754 -1.5153,10.101525 -7.5761,9.59645 0.5051,-9.091373 -1.0102,-11.616755 -5.5558,-11.111678 -7.5762,-15.152288 -4.5457,-6.565991 -1.0101,8.586296 0,16.162441 -6.0609,-27.2741188 -1.5152,-5.0507627 -4.0407,-12.6269068 -6.0609,-16.6675167 -3.5355,-2.020305 0,8.586296 -3.5355,4.04061 0,18.1827462 6.0609,14.6472118 2.5254,11.111678 0,14.142136 0,8.586296 8.0812,20.708128 -4.5457,22.223356 -8.5863,19.697976 -6.566,-3.53554 -6.566,-3.03045 -10.6066,-0.50508 -6.0609,0 -4.0406,5.55584 -3.0305,10.10152 -3.5355,8.5863 -3.0305,3.03046 2.5254,11.61675 1.5152,9.09138 0,8.08122 -4.5456,13.13198 -7.0711,9.59645 -7.0711,11.11168 -17.1726,14.64721 -34.3452,10.10152 -21.7182,0 -17.6777,-2.0203 -16.1624,-4.04061 -8.0813,-5.05076 2.5254,-11.11168 -15.1523,-0.50508 -11.6167,-1.51523 -8.5863,-4.04061 -6.566,-6.56599 0.5051,-15.65736 10.1015,-15.15229 26.264,-25.25381 18.1827,-21.71828 25.7589,-47.98225 7.5761,-36.365492 -9.5964,-24.74873739 -5.5559,6.56599159 1.5153,14.1421358 1.5152,8.586296 -5.5558,-13.637059 -4.0406,-11.1116779 -3.5356,-4.04061022 -5.5558,8.58629662 1.0101,9.0913725 -5.0507,10.101526 -1.0102,10.101525 -6.0609,-5.050762 -7.5761,7.071067 -2.0203,9.091373 -3.0305,-10.606601 -4.5457,-19.192899 -2.5254,-10.6066015 -9.0913,-21.2132035 -8.5863,-15.657364 -12.627,-30.304577 -5.5558,-4.04061 -2.5254,4.545686 4.5457,22.728433 6.0609,13.131983 6.566,19.6979745 -0.5051,13.1319835 0,15.152288 4.5457,15.657364 2.0203,4.545687 7.5762,7.071068 -9.0914,0 -6.566,-10.101526 -1.5152,-10.606602 -2.0203,-25.7588896 -3.0305,-15.1522882 -11.1117,-18.1827462 -6.0609,-11.616754 -3.5355,-16.667517 -0.5051,11.111678 0,15.152288 0.5051,15.657365 2.0203,15.152288 0,20.203051 -6.0609,13.637059 -7.0711,5.050763 -2.0203,-6.565992 -9.5964,-13.131983 -5.0508,-11.111678 -2.0203,-15.1522878 2.0203,-9.5964492 2.0203,-17.172593 -2.0203,-26.263967 -3.5355,-15.657364 -5.0508,-17.67767 -4.5457,11.616755 0,14.647212 2.0203,9.091373 0.5051,10.101525 0,10.101526 1.5152,9.091372 4.0406,7.071068 10.6066,14.1421359 -2.5253,2.5253813 -8.5863,-8.0812202 -8.5863,-15.152288 -2.0203,-13.63706 -1.5153,-17.677669 -6.0609,-13.63706 -2.5254,-13.131983 -1.5152,-17.677669 -2.5254,-21.2132 -3.0304,11.61675 -3.0305,16.162441 -0.5051,19.697975 1.5153,13.131983 4.0406,23.738585 3.0304,12.12183 -3.0304,6.565992 0,11.111678 1.5152,14.6472119 1.5152,10.1015251 -4.0406,11.616755 -6.0609,0 -5.5558,2.020305 -2.5254,-4.04061 6.566,-8.081221 0,-20.2030508 -3.0305,-15.1522882 0,-12.12183 c 0,0 -0.5051,-13.63706 -0.5051,-15.657365 0,-2.020305 0.5051,-15.152288 0.5051,-15.152288 l -7.5761,-17.67767 -2.5254,-11.111678 0,-13.63706 -6.566,13.131984 -0.5051,11.111678 2.5254,16.667517 2.0203,9.091373 7.0711,17.172593 8.0812,10.101526 1.0102,7.576144 1.0101,14.1421354 3.0305,11.6167543 -7.5762,-4.5456865 -8.5863,-13.1319832 -1.5152,-12.626907 -3.0305,-14.647212 -8.0812,-14.647212 -2.5254,-12.12183 -2.0203,-17.67767 0,-18.687824 -6.566,14.142138 0,29.7995 1.0102,14.142136 -1.5152,19.697974 -2.5254,12.121831 -3.0305,9.5964491 -15.6573,6.0609152 5.0507,-15.1522883 4.5457,-17.677669 0.5051,-21.213204 0,-17.172593 0.5051,-14.647212 4.5456,-15.152288 -9.5964,8.586296 -4.0406,10.606602 -4.5457,9.091373 -7.0711,12.121831 -4.0406,10.606601 -2.5254,13.131983 -3.0304,8.586297 -2.0203,5.555839 -3.0305,6.060915 0.5051,-12.626906 -1.5152,-4.040611 -3.0305,9.59645 -3.5355,4.04061 -6.0609,10.1015252 3.5355,22.2233558 -5.5558,8.586297 -12.1219,-11.111678 -5.55581,-1.010153 -7.07107,6.565992 -4.54569,6.565991 -6.06091,11.111678 -3.03046,4.545687 -5.05076,10.101525 -12.62691,17.67767 -17.17259,8.08122 -18.18275,0 -16.66752,5.050763 -14.14213,4.04061 -16.66752,0 -13.63706,-1.010152 -9.59645,-6.565992 -12.12183,-5.555839 -9.59645,-8.08122 -0.50507,-11.111678 7.57614,-12.121831 6.56599,-7.071068 8.5863,-12.626907 12.12183,-7.071067 13.13198,-10.1015258 9.59645,-10.1015255 27.7792,-37.3756447 4.04061,-18.687822 9.09137,-16.16244 -3.03046,-12.626907 -14.64721,-17.172593 -17.17259,0.50508 12.12183,18.182742 4.04061,25.253813 -5.55584,14.647212 -1.01015,23.233509 -7.57615,22.2233558 -11.61675,-19.1928988 c 0,0 -4.04061,-13.131983 -4.04061,-16.16244 0,-3.030458 -7.07107,-25.75889 -7.07107,-25.75889 l -11.61675,-17.172594 0.50507,19.192899 9.09137,21.71828 4.04061,14.647212 0,17.1725928 -10.6066,11.111678 -3.53553,-17.6776698 -4.04061,-12.626907 -8.5863,-30.809652 -7.57614,8.586296 -0.50508,26.769043 -8.58629,14.1421355 -6.566,14.6472119 -5.55584,17.1725936 c 0,0 0.50508,14.647212 -0.50507,16.667517 -1.01015,2.020305 -4.04061,11.111678 -4.04061,11.111678 l -5.05076,27.779195 -6.566,-19.697975 -13.13198,-11.111678 11.11168,17.172593 -0.50508,12.626907 -3.53553,7.071068 -9.59645,-15.657364 -2.02031,-16.667517 -8.08122,21.213203 -3.03045,14.647212 -4.04061,7.576144 -6.566,-15.152288 -0.50507,-11.111678 -2.02031,-17.172593 -9.59645,0 -6.06091,5.555839 -7.57615,14.647211 0.50508,17.172594 c 0,0 -3.03046,7.071068 -3.03046,5.050762 0,-2.020305 -7.57614,-20.708127 -7.57614,-20.708127 l -5.05076,-13.131983 -2.52538,16.162441 c 0,0 -9.59645,7.576144 -10.10153,11.111678 -0.50508,3.535534 -1.01015,16.667519 -1.01015,16.667519 0,0 -2.02031,10.6066 -3.03046,13.63706 -1.01015,3.03045 -3.53553,9.09137 -3.53553,9.09137 l -9.59645,-19.1929 -6.566,-12.626905 -5.55583,12.626905 -3.53554,6.56599 c 0,0 -5.55584,2.02031 -6.06091,4.04061 -0.50508,2.02031 -1.51523,3.53554 -1.51523,3.53554 l -8.08122,-17.67767 -2.02031,-13.131985 0,-14.142136 -14.14213,10.606602 c 0,0 1.01015,21.213199 1.51523,23.233509 0.50507,2.0203 0.50507,9.59645 0.50507,9.59645 l -14.14213,47.98224 -5.05077,24.74874 c 0,0 -8.08122,-12.6269 -9.09137,-15.65736 -1.01015,-3.03046 -2.0203,-29.7995 -2.0203,-29.7995 l 1.01015,-12.62691 -0.50508,-17.67767 -10.6066,-26.769041 -7.57614,23.233511 -9.59645,22.72843 -14.64722,16.66752 c 0,0 -9.59644,5.05076 -12.6269,8.58629 -3.03046,3.53554 -3.53554,0.50508 -3.53554,0.50508 l -9.09137,-29.29442 0,-9.09138 c 0,0 0,-21.2132 0,-25.25381 0,-4.040611 -5.05076,-25.253815 -5.05076,-25.253815 l -13.13198,14.142136 -3.53554,21.718279 -5.05076,22.22336 -19.1929,13.13198 -3.03046,4.04061 -6.56599,-22.72843 -5.55584,-12.62691 -11.61675,21.71828 c 0,0 -2.02031,11.11168 -2.02031,14.64721 0,3.53554 -1.01015,6.56599 -1.01015,6.56599 l -8.5863,-21.2132 -8.08122,-16.66752 -13.63706,2.52538 c 0,0 0.50508,19.1929 0,21.71828 -0.50507,2.52539 -5.55584,14.64722 -5.55584,14.64722 l -8.58629,-15.65737 -3.53554,-8.08122 -5.55583,-12.12183 -10.60661,-9.09137 -3.03045,10.10152 -11.11168,19.1929 -3.53554,8.08122 -2.52538,-8.58629 c 0,0 -4.04061,-7.57615 -5.55584,-10.60661 -1.51523,-3.03045 -6.56599,-11.61675 -6.56599,-11.61675 l -9.09137,2.52538 0.50508,9.59645 4.54568,11.11168 2.02031,14.14213 -2.52538,11.11168 -7.57615,2.02031 -0.50507,-10.10153 -6.06092,-15.15229 -14.64721,-17.67767 -5.05076,-6.56599 -8.08122,-9.59645 c 0,0 -5.05077,12.62691 -6.06092,14.64722 -1.01015,2.0203 -7.07107,12.6269 -7.07107,12.6269 l -2.52538,4.04061 c 0,0 -3.53553,-4.54568 -6.56599,-8.58629 -3.03046,-4.04061 -6.56599,-13.13199 -7.07107,-15.65737 -0.50508,-2.52538 -8.5863,2.02031 -8.5863,2.02031 l -15.15228,14.14213 z"
         inkscape:connector-curvature="0"
         sodipodi:nodetypes="ccscccccccccccccccccccccccccccccccccccccccccccssccscccccccccccccccccccccccccccccccccccccsccccccccccccccccccccccccsccccccccccsscccccccccccccccccccccccccccccccccccccccccscccccccscccccccccccccccccccscccsccccccscccccccccccccccccccccccccccccccccccccccccccccccccccscccsccscccccccccccccccccccccccccccccccccccccccccccccccccccccccccccccccccccccccccccccccccccccccccccccccccccccccccccccccccccccccccccccccccccccccccccccccccccccccccccccccccccccccccccccccccccccccccccccccccccccccccccccccccccccccccccccccccccccccccccccccccccccccccccccccccccccccccccccccccccccccccccccccccccccccccccccccccccccccccccccccccccccccccccccccccccccccccccccccccccccccccccccccccccccccccccccccccccccccccccccccccccccccccccccccccccccccccccccccccccccccccccccccccccccccccccccccccccccccccccccccsccccccccccccccccccccccccccccccccccccccccccccccccccccccccccccccccccccccccccccccccccccccscccccccccccccccscccccccccccccccccccscccscscccccscccccscccscccccccscccscccccccccsccccscccccccccsccccccccccccsccsscc" />
    </g>
  </g>
</svg>
